<?xml version="1.0" standalone="no"?>
<!DOCTYPE svg PUBLIC "-//W3C//DTD SVG 20010904//EN"
 "http://www.w3.org/TR/2001/REC-SVG-20010904/DTD/svg10.dtd">
<svg version="1.0" xmlns="http://www.w3.org/2000/svg"
 width="612.000000pt" height="612.000000pt" viewBox="0 0 612.000000 612.000000"
 preserveAspectRatio="xMidYMid meet">

<g transform="translate(0.000000,612.000000) scale(0.100000,-0.100000)"
fill="#000000" stroke="none">
<path d="M1785 4853 c-29 -7 -56 -34 -71 -70 -18 -41 -20 -414 -3 -461 24 -71
124 -94 181 -43 l33 29 3 236 3 235 -33 35 c-33 34 -74 49 -113 39z"/>
<path d="M2630 4843 c-65 -33 -71 -59 -68 -303 3 -186 5 -219 21 -241 38 -57
118 -66 169 -20 l33 29 3 229 c3 195 1 232 -13 258 -29 56 -89 76 -145 48z"/>
<path d="M3415 4851 c-30 -9 -50 -24 -68 -51 -15 -21 -17 -55 -17 -253 l0
-229 34 -34 c37 -37 82 -45 130 -22 56 25 61 45 64 274 3 170 0 218 -11 247
-22 52 -83 84 -132 68z"/>
<path d="M4160 4842 c-62 -31 -70 -61 -70 -278 0 -105 3 -206 6 -223 18 -87
120 -121 186 -62 l33 29 3 232 c3 228 3 233 -20 266 -14 22 -36 38 -58 44 -44
12 -39 13 -80 -8z"/>
<path d="M1175 4565 l-25 -24 0 -1481 0 -1481 25 -24 24 -25 1861 0 1861 0 24
25 25 24 0 1481 0 1481 -25 24 -24 25 -261 0 -260 0 0 -152 c0 -140 -2 -156
-23 -192 -32 -56 -76 -76 -165 -76 -89 0 -130 16 -168 66 l-29 37 0 159 0 158
-190 0 -190 0 4 -119 c4 -145 -10 -219 -47 -253 -43 -41 -66 -48 -149 -48 -95
0 -138 19 -170 76 -21 36 -23 52 -23 192 l0 152 -190 0 -190 0 0 -152 c0 -140
-2 -156 -23 -192 -32 -57 -75 -76 -170 -76 -163 0 -203 61 -195 295 l4 125
-238 0 -238 0 0 -152 c0 -143 -1 -154 -25 -193 -33 -57 -74 -75 -170 -75 -89
0 -139 22 -171 73 -17 28 -19 52 -19 189 l0 158 -213 0 c-213 0 -213 0 -237
-25z m3604 -750 c16 -8 31 -22 35 -30 3 -9 6 -475 6 -1036 l0 -1020 -25 -24
-24 -25 -1711 0 -1711 0 -24 25 -25 24 0 1024 c0 1081 -2 1040 45 1065 14 8
507 11 1713 12 1467 0 1697 -2 1721 -15z"/>
<path d="M3380 3318 c-167 -170 -312 -308 -320 -308 -8 0 -152 137 -319 305
-168 168 -307 305 -310 305 -4 0 -60 -54 -125 -119 l-119 -119 315 -315 316
-314 -314 -314 -314 -314 107 -107 c59 -59 111 -104 116 -101 6 3 7 2 4 -3 -3
-6 -2 -16 3 -23 6 -10 94 72 318 298 170 171 314 311 320 311 6 0 150 -139
320 -309 l310 -308 121 121 121 121 -310 310 c-170 171 -310 314 -310 318 0 4
140 148 311 319 l311 311 -124 121 -123 121 -305 -307z"/>
</g>
</svg>
